<svg width="16" height="16" viewBox="0 0 16 16" fill="none" xmlns="http://www.w3.org/2000/svg">
<path d="M0 6C0 2.68629 2.68629 0 6 0H16V10C16 13.3137 13.3137 16 10 16H0V6Z" fill="#E65B2E"/>
<g clip-path="url(#clip0_1_7)">
<path d="M13.1947 2.89672C13.1904 2.87599 13.1803 2.85691 13.1656 2.84172C13.1508 2.82652 13.1321 2.81585 13.1115 2.81094C11.7387 2.47531 8.56695 3.67133 6.84851 5.38906C6.54201 5.69308 6.2626 6.02324 6.01343 6.37578C5.48351 6.32891 4.95359 6.36805 4.50195 6.56492C3.22765 7.12578 2.85664 8.58922 2.75328 9.21875C2.74741 9.25321 2.74963 9.28855 2.75974 9.32201C2.76985 9.35547 2.78759 9.38612 2.81155 9.41157C2.83552 9.43701 2.86506 9.45654 2.89785 9.46863C2.93065 9.48073 2.9658 9.48504 3.00054 9.48125L5.04687 9.25555C5.04833 9.40983 5.05764 9.56393 5.07476 9.71726C5.08506 9.82375 5.13233 9.92326 5.20836 9.99851L6.00078 10.7891C6.07611 10.865 6.17558 10.9122 6.28203 10.9227C6.4345 10.9397 6.58775 10.949 6.74117 10.9505L6.51664 12.9943C6.51289 13.029 6.51724 13.0642 6.52935 13.0969C6.54146 13.1297 6.561 13.1592 6.58643 13.1832C6.61186 13.2071 6.64249 13.2249 6.67593 13.235C6.70936 13.2451 6.74469 13.2474 6.77914 13.2416C7.4075 13.1408 8.87351 12.7698 9.43109 11.4955C9.62796 11.0438 9.66828 10.5165 9.62281 9.98914C9.97621 9.73996 10.3072 9.46047 10.6121 9.15383C12.3359 7.43867 13.5252 4.33765 13.1947 2.89672ZM8.89226 7.10773C8.73485 6.95043 8.62764 6.74997 8.58417 6.53173C8.5407 6.31348 8.56293 6.08724 8.64806 5.88163C8.73319 5.67602 8.87738 5.50027 9.0624 5.37663C9.24742 5.25298 9.46496 5.18698 9.6875 5.18698C9.91003 5.18698 10.1276 5.25298 10.3126 5.37663C10.4976 5.50027 10.6418 5.67602 10.7269 5.88163C10.8121 6.08724 10.8343 6.31348 10.7908 6.53173C10.7474 6.74997 10.6401 6.95043 10.4827 7.10773C10.3784 7.21226 10.2544 7.29518 10.1179 7.35176C9.98148 7.40834 9.83521 7.43746 9.6875 7.43746C9.53978 7.43746 9.39351 7.40834 9.25705 7.35176C9.1206 7.29518 8.99664 7.21226 8.89226 7.10773Z" fill="white"/>
<path d="M5.94687 11.3616C5.81844 11.4903 5.61242 11.5405 5.36445 11.5834C4.80734 11.6783 4.31539 11.1969 4.41547 10.6337C4.45367 10.4202 4.56664 10.1209 4.63695 10.0505C4.65232 10.0355 4.66255 10.0159 4.66619 9.99473C4.66983 9.97351 4.66669 9.95169 4.65722 9.93236C4.64775 9.91303 4.63243 9.89717 4.61343 9.88705C4.59444 9.87692 4.57273 9.87303 4.55141 9.87594C4.23987 9.91406 3.95003 10.0553 3.72805 10.2772C3.17703 10.8287 3.125 12.875 3.125 12.875C3.125 12.875 5.1725 12.823 5.72352 12.2715C5.94609 12.0497 6.08752 11.7594 6.125 11.4474C6.13367 11.3495 6.01437 11.2911 5.94687 11.3616Z" fill="white"/>
</g>
<defs>
<clipPath id="clip0_1_7">
<rect width="12" height="12" fill="white" transform="translate(2 2)"/>
</clipPath>
</defs>
</svg>
